<svg id="Layer_1" data-name="Layer 1" xmlns="http://www.w3.org/2000/svg" viewBox="0 0 499.36 209.91"><defs><style>.cls-1{fill:#fff;stroke:#fff;stroke-miterlimit:10;stroke-width:2px;}.cls-2{fill:#00a651;}.cls-3{fill:#ed1c24;}</style></defs><title>name-logo-02</title><path class="cls-1" d="M5.26,167.32l12.93,31.82,1.58,4.09h.17l1.53-4.09L34.4,167.32h4.2v40.94H35.38V177.64l.11-4.42-.16-.06-1.58,4.15L21.14,208.26H18.41L5.8,177.47l-1.58-4.14-.11,0,.06,4.42v30.46H1V167.32Z"/><path class="cls-1" d="M70.91,208.26l-.54-3.77-.17-.05q-3,4.47-10,4.47-6.72,0-9.58-4.07t-2.87-12.68q0-8.35,2.95-12.5t9.55-4.15a14.2,14.2,0,0,1,5.51,1.06,11.11,11.11,0,0,1,4.31,3.14l.11-.05-.11-4.37V164.87l3.33-.28v43.67Zm-.82-25.16a8.48,8.48,0,0,0-3.54-3.22,11.87,11.87,0,0,0-5.46-1.21,12.24,12.24,0,0,0-4.61.77,6.84,6.84,0,0,0-3.06,2.4,11.25,11.25,0,0,0-1.72,4.23,30.77,30.77,0,0,0-.54,6.19,33.77,33.77,0,0,0,.51,6.34,11.57,11.57,0,0,0,1.67,4.28,6.59,6.59,0,0,0,3,2.43,12.42,12.42,0,0,0,4.66.76,13,13,0,0,0,3.55-.43,10,10,0,0,0,2.62-1.15A8.14,8.14,0,0,0,69,203a7.14,7.14,0,0,0,1.09-1.58Z"/><path class="cls-1" d="M87.89,206.24a2.24,2.24,0,0,1-2.51,2.56,2.93,2.93,0,0,1-2-.57,2.53,2.53,0,0,1-.65-2c0-1.68.87-2.51,2.62-2.51A2.22,2.22,0,0,1,87.89,206.24Z"/><path class="cls-1" d="M119.05,170.82v14.79H136.4v3.27H119.05v19.38h-3.6V167.32h24.12l.11,3.5Z"/><path class="cls-1" d="M164.35,203.73l-.17-.06a9.38,9.38,0,0,1-4,3.68,12.89,12.89,0,0,1-6.06,1.4,13.13,13.13,0,0,1-4-.58A8.23,8.23,0,0,1,147,206.4a8,8,0,0,1-2-3.11,13.44,13.44,0,0,1-.71-4.64,9,9,0,0,1,2.84-7.12q2.84-2.49,8.79-2.49a22.58,22.58,0,0,1,4.28.41,25.4,25.4,0,0,1,3.74,1v-4q0-4.59-2-6.33t-6.25-1.75a23.6,23.6,0,0,0-4.77.47,15.75,15.75,0,0,0-4.34,1.55l-.39-2.89a23.58,23.58,0,0,1,10.05-2.13,17.68,17.68,0,0,1,5,.63,7.54,7.54,0,0,1,3.42,2,8.57,8.57,0,0,1,1.93,3.6,19.6,19.6,0,0,1,.63,5.32v21.29h-2.51Zm-.44-10.65a9.18,9.18,0,0,0-2.59-1,19.19,19.19,0,0,0-4.94-.55q-4.69,0-6.82,1.83a6.51,6.51,0,0,0-2.13,5.22,9.17,9.17,0,0,0,.57,3.46,5.57,5.57,0,0,0,1.61,2.24,6.67,6.67,0,0,0,2.4,1.23,11.32,11.32,0,0,0,3,.38,10,10,0,0,0,3.35-.57,11.38,11.38,0,0,0,2.84-1.48,7.71,7.71,0,0,0,2-2,4.17,4.17,0,0,0,.74-2.3Z"/><path class="cls-1" d="M197.8,208.26V186.48a7.8,7.8,0,0,0-2-5.79c-1.37-1.34-3.49-2-6.36-2a10.92,10.92,0,0,0-5.35,1.29,8.66,8.66,0,0,0-3.44,3.14v25.16h-3.33V164.87l3.33-.28v10.59l-.05,4.37.11,0a11.06,11.06,0,0,1,4.17-3.08,13.67,13.67,0,0,1,5.43-1.07q5.35,0,8.11,2.82t2.75,8.21v21.78Z"/><path class="cls-1" d="M229.29,203.73l-.16-.06a9.38,9.38,0,0,1-4,3.68,13,13,0,0,1-6.06,1.4,13.08,13.08,0,0,1-4-.58,8.15,8.15,0,0,1-3.14-1.77,7.85,7.85,0,0,1-2-3.11,13.44,13.44,0,0,1-.71-4.64,9,9,0,0,1,2.84-7.12q2.83-2.49,8.78-2.49a22.6,22.6,0,0,1,4.29.41,25.4,25.4,0,0,1,3.74,1v-4c0-3.06-.67-5.17-2-6.33s-3.42-1.75-6.25-1.75a23.7,23.7,0,0,0-4.78.47,15.86,15.86,0,0,0-4.34,1.55l-.38-2.89a23.54,23.54,0,0,1,10-2.13,17.71,17.71,0,0,1,5.05.63,7.51,7.51,0,0,1,3.41,2,8.48,8.48,0,0,1,1.94,3.6,19.6,19.6,0,0,1,.63,5.32v21.29h-2.51Zm-.43-10.65a9.32,9.32,0,0,0-2.59-1,19.19,19.19,0,0,0-4.94-.55q-4.7,0-6.83,1.83a6.5,6.5,0,0,0-2.12,5.22,9.17,9.17,0,0,0,.57,3.46,5.57,5.57,0,0,0,1.61,2.24,6.67,6.67,0,0,0,2.4,1.23,11.3,11.3,0,0,0,3,.38,10,10,0,0,0,3.36-.57,11.38,11.38,0,0,0,2.84-1.48,7.87,7.87,0,0,0,2-2,4.25,4.25,0,0,0,.74-2.3Z"/><path class="cls-1" d="M263,208.26l-.55-3.77-.16-.05q-3.06,4.47-10,4.47-6.71,0-9.58-4.07t-2.86-12.68q0-8.35,2.94-12.5t9.56-4.15a14.23,14.23,0,0,1,5.51,1.06,11.11,11.11,0,0,1,4.31,3.14l.11-.05-.11-4.37V164.87l3.33-.28v43.67Zm-.82-25.16a8.45,8.45,0,0,0-3.55-3.22,11.8,11.8,0,0,0-5.45-1.21,12.33,12.33,0,0,0-4.62.77,6.87,6.87,0,0,0-3.05,2.4,10.94,10.94,0,0,0-1.72,4.23,30,30,0,0,0-.55,6.19,32.87,32.87,0,0,0,.52,6.34,11.57,11.57,0,0,0,1.66,4.28,6.69,6.69,0,0,0,3,2.43,12.47,12.47,0,0,0,4.67.76,13,13,0,0,0,3.55-.43,10,10,0,0,0,2.62-1.15,8.37,8.37,0,0,0,1.8-1.53,7.49,7.49,0,0,0,1.09-1.58Z"/><path class="cls-1" d="M319.56,178.4q0,5-2.23,7.67a9.58,9.58,0,0,1-6.5,3.14l11.41,19h-4.37l-10.48-18.4H297.9v18.4h-3.6V167.32h13.26c4.15,0,7.18.91,9.11,2.73S319.56,174.65,319.56,178.4Zm-3.71.17c0-2.88-.66-4.93-2-6.17s-3.43-1.86-6.3-1.86H297.9v16.38h9.33c3,0,5.17-.65,6.55-1.94S315.85,181.55,315.85,178.57Z"/><path class="cls-1" d="M347.07,203.73l-.16-.06a9.41,9.41,0,0,1-4,3.68,12.88,12.88,0,0,1-6.05,1.4,13.15,13.15,0,0,1-4-.58,8.18,8.18,0,0,1-3.13-1.77,7.75,7.75,0,0,1-2-3.11,13.2,13.2,0,0,1-.71-4.64c0-3.09.94-5.47,2.84-7.12s4.82-2.49,8.78-2.49a22.6,22.6,0,0,1,4.29.41,25.75,25.75,0,0,1,3.74,1v-4q0-4.59-2-6.33t-6.25-1.75a23.67,23.67,0,0,0-4.77.47,15.86,15.86,0,0,0-4.34,1.55l-.38-2.89a23.5,23.5,0,0,1,10-2.13A17.75,17.75,0,0,1,344,176a7.51,7.51,0,0,1,3.41,2,8.59,8.59,0,0,1,1.94,3.6A19.63,19.63,0,0,1,350,187v21.29h-2.51Zm-.43-10.65a9.42,9.42,0,0,0-2.6-1,19.14,19.14,0,0,0-4.94-.55q-4.69,0-6.82,1.83a6.51,6.51,0,0,0-2.13,5.22,9,9,0,0,0,.58,3.46,5.57,5.57,0,0,0,1.61,2.24,6.67,6.67,0,0,0,2.4,1.23,11.3,11.3,0,0,0,3,.38,10.05,10.05,0,0,0,3.36-.57,11.31,11.31,0,0,0,2.83-1.48,7.75,7.75,0,0,0,2-2,4.25,4.25,0,0,0,.74-2.3Z"/><path class="cls-1" d="M380.53,208.26V186.48a7.76,7.76,0,0,0-2-5.79c-1.36-1.34-3.48-2-6.36-2a10.94,10.94,0,0,0-5.35,1.29,8.57,8.57,0,0,0-3.43,3.14v25.16H360V164.87l3.33-.28v10.59l-.06,4.37.11,0a11.14,11.14,0,0,1,4.17-3.08,13.68,13.68,0,0,1,5.44-1.07q5.34,0,8.1,2.82t2.76,8.21v21.78Z"/><path class="cls-1" d="M430.47,208.26V186.37c0-2.62-.71-4.55-2.11-5.79a8.33,8.33,0,0,0-5.7-1.85,8.9,8.9,0,0,0-2.76.44,6.56,6.56,0,0,0-2.34,1.31,6.23,6.23,0,0,0-1.61,2.18,7.11,7.11,0,0,0-.6,3v22.6h-3.28v-22.6a8.08,8.08,0,0,0-.57-3.19,5.57,5.57,0,0,0-1.58-2.16,6.79,6.79,0,0,0-2.35-1.2,10.36,10.36,0,0,0-2.81-.38,9.5,9.5,0,0,0-4.5,1.17A8.25,8.25,0,0,0,396.9,183v25.22h-3.27V176.11l2.34-.22.66,3.93h.16a9.91,9.91,0,0,1,3.63-3.06,10.72,10.72,0,0,1,4.89-1.14q6.93,0,8.89,5.35h.16a8,8,0,0,1,3.5-4,11.06,11.06,0,0,1,5.57-1.37,10.63,10.63,0,0,1,7.44,2.62q2.86,2.63,2.87,8.14v21.94Z"/><path class="cls-1" d="M461.9,203.73l-.16-.06a9.41,9.41,0,0,1-4,3.68,12.89,12.89,0,0,1-6.06,1.4,13.13,13.13,0,0,1-4-.58,8.11,8.11,0,0,1-3.13-1.77,7.75,7.75,0,0,1-2-3.11,13.2,13.2,0,0,1-.71-4.64c0-3.09.94-5.47,2.83-7.12s4.83-2.49,8.79-2.49a22.68,22.68,0,0,1,4.29.41,25.26,25.26,0,0,1,3.73,1v-4q0-4.59-2-6.33t-6.25-1.75a23.67,23.67,0,0,0-4.77.47,15.86,15.86,0,0,0-4.34,1.55l-.38-2.89a23.5,23.5,0,0,1,10-2.13,17.75,17.75,0,0,1,5.05.63,7.56,7.56,0,0,1,3.41,2,8.59,8.59,0,0,1,1.94,3.6,20,20,0,0,1,.62,5.32v21.29h-2.51Zm-.44-10.65a9.18,9.18,0,0,0-2.59-1,19.14,19.14,0,0,0-4.94-.55q-4.69,0-6.82,1.83A6.51,6.51,0,0,0,445,198.6a9,9,0,0,0,.58,3.46,5.48,5.48,0,0,0,1.61,2.24,6.67,6.67,0,0,0,2.4,1.23,11.3,11.3,0,0,0,3,.38,10.05,10.05,0,0,0,3.36-.57,11.31,11.31,0,0,0,2.83-1.48,7.75,7.75,0,0,0,2-2,4.24,4.24,0,0,0,.73-2.3Z"/><path class="cls-1" d="M495.08,208.26V186.53c0-2.76-.73-4.76-2.21-6a9.51,9.51,0,0,0-6.3-1.86,11.75,11.75,0,0,0-2.46.28,11.13,11.13,0,0,0-4.66,2.24,7.48,7.48,0,0,0-1.67,1.85v25.22h-3.27V176.11l2.34-.22.61,3.88h.16a10.78,10.78,0,0,1,4.23-3.14,13.75,13.75,0,0,1,5.54-1.12q5.13,0,8.05,2.67c1.95,1.79,2.92,4.55,2.92,8.3v21.78Z"/><polygon class="cls-2" points="190.03 0 130.38 153 249.68 153 190.03 0"/><polygon class="cls-3" points="309.33 0 249.68 153 368.98 153 309.33 0"/></svg>